<?xml version="1.0" encoding="UTF-8" standalone="no"?>
<svg
   xmlns:dc="http://purl.org/dc/elements/1.1/"
   xmlns:cc="http://creativecommons.org/ns#"
   xmlns:rdf="http://www.w3.org/1999/02/22-rdf-syntax-ns#"
   xmlns:svg="http://www.w3.org/2000/svg"
   xmlns="http://www.w3.org/2000/svg"
   xmlns:sodipodi="http://sodipodi.sourceforge.net/DTD/sodipodi-0.dtd"
   xmlns:inkscape="http://www.inkscape.org/namespaces/inkscape"
   inkscape:export-ydpi="96"
   inkscape:export-xdpi="96"
   inkscape:export-filename="C:\Users\ejboh\Pictures\ice-cream.png"
   sodipodi:docname="ice-cream.svg"
   inkscape:version="1.0 (4035a4fb49, 2020-05-01)"
   id="svg850"
   version="1.1"
   viewBox="0 0 210 297"
   height="297mm"
   width="210mm">
  <defs
     id="defs844" />
  <sodipodi:namedview
     inkscape:pagecheckerboard="true"
     inkscape:object-paths="true"
     inkscape:window-maximized="1"
     inkscape:window-y="-9"
     inkscape:window-x="-9"
     inkscape:window-height="1001"
     inkscape:window-width="1920"
     inkscape:snap-page="false"
     inkscape:snap-to-guides="true"
     inkscape:snap-grids="true"
     showgrid="false"
     inkscape:document-rotation="0"
     inkscape:current-layer="layer1"
     inkscape:document-units="mm"
     inkscape:cy="561.25984"
     inkscape:cx="120.09366"
     inkscape:zoom="0.71000982"
     inkscape:pageshadow="2"
     inkscape:pageopacity="0"
     borderopacity="1.0"
     bordercolor="#666666"
     pagecolor="#ffffff"
     id="base" />
  <metadata
     id="metadata847">
    <rdf:RDF>
      <cc:Work
         rdf:about="">
        <dc:format>image/svg+xml</dc:format>
        <dc:type
           rdf:resource="http://purl.org/dc/dcmitype/StillImage" />
        <dc:title></dc:title>
      </cc:Work>
    </rdf:RDF>
  </metadata>
  <g
     id="layer1"
     inkscape:groupmode="layer"
     inkscape:label="Layer 1">
    <path
       id="path965"
       d="M 68.194478,140.86073 C 109.93099,251.53701 110.67628,250.41907 110.67628,250.41907 L 144.21455,140.86073 Z"
       style="fill:#aa4400;stroke:#000000;stroke-width:0.264583px;stroke-linecap:butt;stroke-linejoin:miter;stroke-opacity:1" />
    <path
       id="path945"
       d="m 114.12772,158.47133 c -3.6154,-1.19002 -6.48719,-3.35929 -9.04167,-6.8298 -0.59308,-0.80575 -1.20002,-1.08183 -2.97996,-1.35552 -2.125167,-0.32676 -2.299397,-0.29317 -3.540142,0.68254 -2.287709,1.79903 -5.317839,3.29598 -8.346892,4.12357 -3.893534,1.06377 -10.377371,0.91659 -13.888434,-0.31525 -7.79158,-2.73364 -13.45452,-9.21808 -14.240351,-16.30615 l -0.230799,-2.08176 -1.895652,-0.64035 c -4.269611,-1.44226 -7.46655,-4.30945 -9.570887,-8.58369 -0.999069,-2.02926 -1.196305,-2.89746 -1.324591,-5.83062 -0.163939,-3.74829 0.364905,-6.07049 2.04366,-8.97388 1.91552,-3.31288 6.632032,-6.78308 10.125088,-7.44959 1.439735,-0.27472 1.304846,0.0515 2.086761,-5.04591 2.024255,-13.196292 9.824058,-24.596513 21.566078,-31.52105 10.739221,-6.333167 24.999701,-7.792845 37.195911,-3.807307 13.14756,4.296421 23.93654,14.905963 28.30736,27.836563 1.23625,3.657315 2.20592,8.374254 2.20592,10.730674 0,1.57507 0.0517,1.64147 2.58959,3.32869 5.75506,3.82595 8.94383,10.13738 8.95697,17.72821 0.0184,10.62035 -6.86441,19.12076 -16.43447,20.29696 -2.64876,0.32554 -5.81011,-0.29829 -8.68181,-1.71321 -1.21218,-0.59725 -2.22822,-1.0436 -2.25787,-0.99189 -0.0297,0.0517 -0.25618,1.35171 -0.50342,2.88888 -0.93895,5.838 -4.36723,10.44555 -9.6344,12.94849 -2.678,1.27257 -3.21747,1.39321 -6.64124,1.48515 -2.85762,0.0767 -4.22503,-0.064 -5.86475,-0.60375 z"
       style="fill:#ff00ff;stroke-width:0.372647" />
  </g>
</svg>
