<?xml version="1.0" standalone="no"?><svg xmlns="http://www.w3.org/2000/svg" viewBox="0 0 1440 320"><path fill="#00bbff" fill-opacity="1" d="M0,256L14.1,240C28.2,224,56,192,85,197.3C112.9,203,141,245,169,234.7C197.6,224,226,160,254,128C282.4,96,311,96,339,112C367.1,128,395,160,424,160C451.8,160,480,128,508,122.7C536.5,117,565,139,593,144C621.2,149,649,139,678,149.3C705.9,160,734,192,762,218.7C790.6,245,819,267,847,240C875.3,213,904,139,932,117.3C960,96,988,128,1016,149.3C1044.7,171,1073,181,1101,154.7C1129.4,128,1158,64,1186,42.7C1214.1,21,1242,43,1271,64C1298.8,85,1327,107,1355,144C1383.5,181,1412,235,1426,261.3L1440,288L1440,0L1425.9,0C1411.8,0,1384,0,1355,0C1327.1,0,1299,0,1271,0C1242.4,0,1214,0,1186,0C1157.6,0,1129,0,1101,0C1072.9,0,1045,0,1016,0C988.2,0,960,0,932,0C903.5,0,875,0,847,0C818.8,0,791,0,762,0C734.1,0,706,0,678,0C649.4,0,621,0,593,0C564.7,0,536,0,508,0C480,0,452,0,424,0C395.3,0,367,0,339,0C310.6,0,282,0,254,0C225.9,0,198,0,169,0C141.2,0,113,0,85,0C56.5,0,28,0,14,0L0,0Z"></path></svg>